<mxfile host="app.diagrams.net" modified="2023-12-06T00:45:01.964Z" agent="Mozilla/5.0 (Windows NT 10.0; Win64; x64) AppleWebKit/537.36 (KHTML, like Gecko) Chrome/119.0.0.0 Safari/537.36" etag="hrMa4Y1DMIYZKWQFCRRG" version="22.1.5" type="device">
  <diagram name="Page-1" id="e3a06f82-3646-2815-327d-82caf3d4e204">
    <mxGraphModel dx="2074" dy="1110" grid="1" gridSize="10" guides="1" tooltips="1" connect="1" arrows="1" fold="1" page="1" pageScale="1.5" pageWidth="1169" pageHeight="826" background="none" math="0" shadow="0">
      <root>
        <mxCell id="0" style=";html=1;" />
        <mxCell id="1" style=";html=1;" parent="0" />
        <mxCell id="TEOFu60Q1NvdzAo3ua6q-8" value="Virtual Machines" style="whiteSpace=wrap;html=1;fillColor=#fff2cc;fontSize=14;strokeColor=#d6b656;verticalAlign=top;" vertex="1" parent="1">
          <mxGeometry x="589.5" y="200" width="329" height="720" as="geometry" />
        </mxCell>
        <mxCell id="6a7d8f32e03d9370-57" value="Active Directory" style="whiteSpace=wrap;html=1;fillColor=#FFD470;gradientColor=none;fontSize=14;strokeColor=none;verticalAlign=top;" parent="1" vertex="1">
          <mxGeometry x="600" y="230" width="308" height="680" as="geometry" />
        </mxCell>
        <mxCell id="6a7d8f32e03d9370-3" value="HYDRA-DC&lt;br&gt;10.0.2.15" style="verticalLabelPosition=bottom;aspect=fixed;html=1;verticalAlign=top;strokeColor=none;shape=mxgraph.citrix.desktop;fillColor=#66B2FF;gradientColor=#0066CC;fontSize=14;" parent="1" vertex="1">
          <mxGeometry x="714" y="652" width="89" height="98" as="geometry" />
        </mxCell>
        <mxCell id="6a7d8f32e03d9370-4" value="PUNISHER&lt;br style=&quot;border-color: var(--border-color);&quot;&gt;10.0.2.4" style="verticalLabelPosition=bottom;aspect=fixed;html=1;verticalAlign=top;strokeColor=none;shape=mxgraph.citrix.desktop;fillColor=#66B2FF;gradientColor=#0066CC;fontSize=14;" parent="1" vertex="1">
          <mxGeometry x="714" y="488.00000000000006" width="89" height="98" as="geometry" />
        </mxCell>
        <mxCell id="6a7d8f32e03d9370-32" style="edgeStyle=none;rounded=0;html=1;startSize=10;endSize=10;jettySize=auto;orthogonalLoop=1;fontSize=14;endArrow=none;endFill=0;strokeWidth=2;" parent="1" source="6a7d8f32e03d9370-5" target="6a7d8f32e03d9370-12" edge="1">
          <mxGeometry relative="1" as="geometry" />
        </mxCell>
        <mxCell id="6a7d8f32e03d9370-5" value="SPIDERMAN&lt;br style=&quot;border-color: var(--border-color);&quot;&gt;10.0.2.5" style="verticalLabelPosition=bottom;aspect=fixed;html=1;verticalAlign=top;strokeColor=none;shape=mxgraph.citrix.desktop;fillColor=#66B2FF;gradientColor=#0066CC;fontSize=14;" parent="1" vertex="1">
          <mxGeometry x="710" y="324.00000000000006" width="89" height="98" as="geometry" />
        </mxCell>
        <mxCell id="6a7d8f32e03d9370-12" value="PC" style="verticalLabelPosition=bottom;aspect=fixed;html=1;verticalAlign=top;strokeColor=none;shape=mxgraph.citrix.xenapp_server;fillColor=#66B2FF;gradientColor=#0066CC;fontSize=14;" parent="1" vertex="1">
          <mxGeometry x="1098" y="563" width="76" height="89" as="geometry" />
        </mxCell>
        <mxCell id="6a7d8f32e03d9370-62" value="Active Directory lab - Network Diagram" style="text;strokeColor=none;fillColor=none;html=1;fontSize=24;fontStyle=1;verticalAlign=middle;align=center;" parent="1" vertex="1">
          <mxGeometry x="499" y="30" width="861" height="40" as="geometry" />
        </mxCell>
        <mxCell id="TEOFu60Q1NvdzAo3ua6q-3" style="edgeStyle=none;rounded=0;html=1;startSize=10;endSize=10;jettySize=auto;orthogonalLoop=1;fontSize=14;endArrow=none;endFill=0;strokeWidth=2;exitX=0.674;exitY=0.694;exitDx=0;exitDy=0;exitPerimeter=0;" edge="1" parent="1" source="6a7d8f32e03d9370-3" target="6a7d8f32e03d9370-12">
          <mxGeometry relative="1" as="geometry">
            <mxPoint x="827" y="860" as="sourcePoint" />
            <mxPoint x="1518" y="728" as="targetPoint" />
          </mxGeometry>
        </mxCell>
        <mxCell id="TEOFu60Q1NvdzAo3ua6q-4" style="edgeStyle=none;rounded=0;html=1;startSize=10;endSize=10;jettySize=auto;orthogonalLoop=1;fontSize=14;endArrow=none;endFill=0;strokeWidth=2;exitX=0.652;exitY=0.796;exitDx=0;exitDy=0;exitPerimeter=0;" edge="1" parent="1" source="6a7d8f32e03d9370-4" target="6a7d8f32e03d9370-12">
          <mxGeometry relative="1" as="geometry">
            <mxPoint x="784" y="730" as="sourcePoint" />
            <mxPoint x="1517" y="731" as="targetPoint" />
          </mxGeometry>
        </mxCell>
        <mxCell id="TEOFu60Q1NvdzAo3ua6q-5" value="NAT&lt;br&gt;10.0.2.0/24" style="text;html=1;align=center;verticalAlign=middle;resizable=0;points=[];autosize=1;strokeColor=none;fillColor=none;" vertex="1" parent="1">
          <mxGeometry x="970" y="450" width="80" height="40" as="geometry" />
        </mxCell>
      </root>
    </mxGraphModel>
  </diagram>
</mxfile>
